<?xml version="1.0" encoding="UTF-8"?>
<svg width="700pt" height="700pt" version="1.1" viewBox="0 0 700 700" xmlns="http://www.w3.org/2000/svg">
 <path d="m193.72 194h34.309c0.36328-20.617-0.57422-42.066-0.26562-62.531 1.3086-32.805 15.465-62.172 37.477-83.32 22.047-21.18 51.961-34.156 84.762-34.156 32.871 0 62.848 13.035 84.922 34.453 21.918 21.27 36.008 50.852 37.336 84.121l0.039063 61.434h33.984c14.074 0 26.875 5.7617 36.141 15.027s15.027 22.066 15.027 36.141v209.72c0 25.035-10.254 47.809-26.754 64.316-16.547 16.543-39.328 26.793-64.363 26.793h-232.66c-25.035 0-47.812-10.254-64.324-26.754-16.543-16.547-26.793-39.32-26.793-64.355v-209.72c0-14.074 5.7617-26.875 15.027-36.141s22.066-15.027 36.141-15.027zm194.26 157.74 12.707 100.08c0.77344 6.1133-3.5586 11.699-9.6719 12.473l-80.633 0.13281c-6.1836 0-11.203-5.0195-11.203-11.203 0-24.758 9.3906-74.379 12.84-101.5-2.4883-3.3086-4.5586-6.9727-6.1328-10.898-2.2305-5.5078-3.4453-11.496-3.4453-17.68 0-13.121 5.332-25.027 13.938-33.633 8.6055-8.6055 20.504-13.938 33.625-13.938s25.023 5.332 33.625 13.938c8.6055 8.6055 13.938 20.512 13.938 33.633 0 6.1836-1.2188 12.172-3.4336 17.688-1.5664 3.9219-3.6523 7.5859-6.1523 10.906zm-11.039 90.277-11.668-91.945c-0.54297-3.332 0.42187-6.8711 2.9219-9.4961 2.2109-2.3086 3.9961-5.0547 5.1914-8.0508 1.1367-2.8359 1.7656-6.0117 1.7656-9.3789 0-6.9531-2.8164-13.254-7.3633-17.801-4.543-4.543-10.84-7.3633-17.793-7.3633s-13.25 2.8164-17.793 7.3633c-4.543 4.543-7.3633 10.848-7.3633 17.801 0 3.3672 0.62891 6.543 1.7656 9.3789 1.1758 2.9883 2.9648 5.7227 5.1875 8.043 2.2148 2.3555 3.4141 5.6406 2.9766 9.1016l-11.719 92.348zm-126.89-248.02h32.332l0.046875-61.168c0.72266-17.879 8.5859-33.949 20.816-45.52 12.191-11.535 28.699-18.625 46.758-18.625 18.129 0 34.672 7.1094 46.855 18.758 12.164 11.629 19.988 27.805 20.715 45.941l-0.011719 60.613h32.336v-60.996c-1.1641-27.113-12.691-51.195-30.559-68.535-17.973-17.441-42.449-28.062-69.336-28.062-26.855 0-51.301 10.574-69.27 27.848-18.004 17.297-29.586 41.305-30.656 68.094l-0.019531 61.656zm54.734 0h90.457l0.011718-59.738c-0.48437-12.098-5.6953-22.879-13.797-30.625-8.1406-7.7852-19.254-12.539-31.457-12.539-12.223 0-23.316 4.7227-31.438 12.41-8.0156 7.5859-13.207 18.082-13.797 29.766l0.019531 60.73zm-111.07 22.41c-7.9023 0-15.102 3.2461-20.305 8.4531-5.207 5.207-8.4531 12.402-8.4531 20.305v209.72c0 18.902 7.7305 36.094 20.16 48.543 12.449 12.43 29.645 20.16 48.547 20.16h232.66c18.902 0 36.102-7.7305 48.547-20.16 12.43-12.449 20.16-29.637 20.16-48.543v-209.72c0-7.9023-3.2461-15.102-8.4531-20.305-5.207-5.207-12.402-8.4531-20.305-8.4531h-312.56z"/>
</svg>
