<?xml version="1.0" encoding="UTF-8"?>
<svg width="700pt" height="700pt" version="1.1" viewBox="0 0 700 700" xmlns="http://www.w3.org/2000/svg" xmlns:xlink="http://www.w3.org/1999/xlink">
 <defs>
  <symbol id="o" overflow="visible">
   <path d="m31.266-1.875c-1.6172 0.84375-3.2969 1.4766-5.0469 1.8906-1.7422 0.42578-3.5586 0.64062-5.4531 0.64062-5.668 0-10.156-1.582-13.469-4.75-3.3125-3.1641-4.9688-7.4609-4.9688-12.891 0-5.4375 1.6562-9.7383 4.9688-12.906 3.3125-3.1641 7.8008-4.75 13.469-4.75 1.8945 0 3.7109 0.21484 5.4531 0.64062 1.75 0.42969 3.4297 1.0586 5.0469 1.8906v7.0469c-1.625-1.1133-3.2305-1.9258-4.8125-2.4375-1.5742-0.51953-3.2344-0.78125-4.9844-0.78125-3.1367 0-5.6016 1.0078-7.3906 3.0156-1.793 2-2.6875 4.7617-2.6875 8.2812 0 3.5117 0.89453 6.2734 2.6875 8.2812 1.7891 2 4.2539 3 7.3906 3 1.75 0 3.4102-0.25391 4.9844-0.76562 1.582-0.51953 3.1875-1.332 4.8125-2.4375z"/>
  </symbol>
  <symbol id="a" overflow="visible">
   <path d="m22.875-18.578c-0.71094-0.33203-1.418-0.57812-2.125-0.73438-0.71094-0.15625-1.418-0.23438-2.125-0.23438-2.1055 0-3.7266 0.67188-4.8594 2.0156-1.125 1.3438-1.6875 3.2656-1.6875 5.7656v11.766h-8.1562v-25.531h8.1562v4.2031c1.0508-1.6758 2.2539-2.8945 3.6094-3.6562 1.3633-0.76953 2.9922-1.1562 4.8906-1.1562 0.26953 0 0.56641 0.011719 0.89062 0.03125 0.32031 0.023437 0.78516 0.074219 1.3906 0.15625z"/>
  </symbol>
  <symbol id="c" overflow="visible">
   <path d="m29.391-12.828v2.3281h-19.062c0.19531 1.9062 0.88281 3.3398 2.0625 4.2969 1.1875 0.96094 2.8438 1.4375 4.9688 1.4375 1.7188 0 3.4766-0.25391 5.2812-0.76562 1.8008-0.50781 3.6484-1.2812 5.5469-2.3125v6.2969c-1.9297 0.73047-3.8594 1.2773-5.7969 1.6406-1.9297 0.375-3.8555 0.5625-5.7812 0.5625-4.6172 0-8.2031-1.1719-10.766-3.5156s-3.8438-5.6328-3.8438-9.875c0-4.1641 1.2539-7.4414 3.7656-9.8281 2.5195-2.3828 5.9844-3.5781 10.391-3.5781 4.0078 0 7.2188 1.2109 9.625 3.625 2.4062 2.418 3.6094 5.6484 3.6094 9.6875zm-8.375-2.7188c0-1.5391-0.45312-2.7852-1.3594-3.7344-0.90625-0.95703-2.0898-1.4375-3.5469-1.4375-1.5859 0-2.8711 0.44922-3.8594 1.3438-0.98047 0.88672-1.5898 2.1641-1.8281 3.8281z"/>
  </symbol>
  <symbol id="i" overflow="visible">
   <path d="m15.359-11.484c-1.6992 0-2.9805 0.29297-3.8438 0.875-0.85547 0.57422-1.2812 1.4219-1.2812 2.5469 0 1.0312 0.34375 1.8398 1.0312 2.4219 0.69531 0.58594 1.6602 0.875 2.8906 0.875 1.5312 0 2.8164-0.54688 3.8594-1.6406 1.0508-1.1016 1.5781-2.4844 1.5781-4.1406v-0.9375zm12.469-3.0781v14.562h-8.2344v-3.7812c-1.0938 1.5547-2.3242 2.6836-3.6875 3.3906-1.3672 0.69531-3.0273 1.0469-4.9844 1.0469-2.6484 0-4.7969-0.76953-6.4531-2.3125-1.6484-1.5391-2.4688-3.5391-2.4688-6 0-2.9883 1.0312-5.1797 3.0938-6.5781 2.0625-1.4062 5.2969-2.1094 9.7031-2.1094h4.7969v-0.64062c0-1.2891-0.51172-2.2344-1.5312-2.8281-1.0117-0.60156-2.5938-0.90625-4.75-0.90625-1.75 0-3.3828 0.17969-4.8906 0.53125-1.5 0.34375-2.8984 0.86719-4.1875 1.5625v-6.2188c1.75-0.42578 3.5039-0.75 5.2656-0.96875 1.7578-0.21875 3.5234-0.32812 5.2969-0.32812 4.5938 0 7.9102 0.91406 9.9531 2.7344 2.0508 1.8125 3.0781 4.7617 3.0781 8.8438z"/>
  </symbol>
  <symbol id="b" overflow="visible">
   <path d="m12.828-32.766v7.2344h8.4062v5.8438h-8.4062v10.828c0 1.1797 0.23438 1.9805 0.70312 2.4062 0.47656 0.41797 1.4141 0.625 2.8125 0.625h4.1875v5.8281h-7c-3.2188 0-5.5-0.67188-6.8438-2.0156s-2.0156-3.625-2.0156-6.8438v-10.828h-4.0625v-5.8438h4.0625v-7.2344z"/>
  </symbol>
  <symbol id="h" overflow="visible">
   <path d="m21.281-21.781v-13.672h8.2031v35.453h-8.2031v-3.6875c-1.125 1.5-2.3672 2.6016-3.7188 3.2969-1.3438 0.69531-2.9062 1.0469-4.6875 1.0469-3.1484 0-5.7305-1.25-7.75-3.75-2.0234-2.5-3.0312-5.7109-3.0312-9.6406 0-3.9375 1.0078-7.1562 3.0312-9.6562 2.0195-2.5 4.6016-3.75 7.75-3.75 1.7578 0 3.3164 0.35547 4.6719 1.0625 1.3633 0.71094 2.6094 1.8086 3.7344 3.2969zm-5.375 16.516c1.75 0 3.082-0.63281 4-1.9062 0.91406-1.2812 1.375-3.1328 1.375-5.5625 0-2.4375-0.46094-4.2891-1.375-5.5625-0.91797-1.2812-2.25-1.9219-4-1.9219-1.7305 0-3.0586 0.64062-3.9844 1.9219-0.91797 1.2734-1.375 3.125-1.375 5.5625 0 2.4297 0.45703 4.2812 1.375 5.5625 0.92578 1.2734 2.2539 1.9062 3.9844 1.9062z"/>
  </symbol>
  <symbol id="g" overflow="visible">
   <path d="m17.5-5.2656c1.75 0 3.082-0.63281 4-1.9062 0.91406-1.2812 1.375-3.1328 1.375-5.5625 0-2.4375-0.46094-4.2891-1.375-5.5625-0.91797-1.2812-2.25-1.9219-4-1.9219s-3.0938 0.64844-4.0312 1.9375c-0.92969 1.2812-1.3906 3.1328-1.3906 5.5469 0 2.418 0.46094 4.2656 1.3906 5.5469 0.9375 1.2812 2.2812 1.9219 4.0312 1.9219zm-5.4219-16.516c1.125-1.4883 2.3672-2.5859 3.7344-3.2969 1.3633-0.70703 2.9375-1.0625 4.7188-1.0625 3.1445 0 5.7266 1.25 7.75 3.75 2.0195 2.5 3.0312 5.7188 3.0312 9.6562 0 3.9297-1.0117 7.1406-3.0312 9.6406-2.0234 2.5-4.6055 3.75-7.75 3.75-1.7812 0-3.3555-0.35156-4.7188-1.0469-1.3672-0.70703-2.6094-1.8047-3.7344-3.2969v3.6875h-8.1562v-35.453h8.1562z"/>
  </symbol>
  <symbol id="f" overflow="visible">
   <path d="m0.5625-25.531h8.1719l6.8594 17.328 5.8281-17.328h8.1562l-10.734 27.953c-1.0742 2.832-2.3281 4.8164-3.7656 5.9531-1.4375 1.1328-3.3359 1.7031-5.6875 1.7031h-4.7188v-5.3594h2.5469c1.3828 0 2.3906-0.22656 3.0156-0.67188 0.63281-0.4375 1.1289-1.2266 1.4844-2.3594l0.21875-0.70312z"/>
  </symbol>
  <symbol id="e" overflow="visible">
   <path d="m29.578-15.547v15.547h-8.2031v-11.891c0-2.207-0.054688-3.7266-0.15625-4.5625-0.09375-0.83203-0.26172-1.4453-0.5-1.8438-0.32422-0.53125-0.76172-0.94141-1.3125-1.2344-0.54297-0.30078-1.1641-0.45312-1.8594-0.45312-1.6992 0-3.0391 0.65625-4.0156 1.9688-0.96875 1.3125-1.4531 3.1328-1.4531 5.4531v12.562h-8.1562v-25.531h8.1562v3.75c1.2266-1.4883 2.5352-2.5859 3.9219-3.2969 1.3828-0.70703 2.9102-1.0625 4.5781-1.0625 2.9453 0 5.1797 0.90625 6.7031 2.7188 1.5312 1.8047 2.2969 4.4297 2.2969 7.875z"/>
  </symbol>
  <symbol id="n" overflow="visible">
   <path d="m3.6406-9.9375v-15.594h8.2031v2.5625c0 1.3867-0.007812 3.125-0.015625 5.2188-0.011719 2.0859-0.015625 3.4766-0.015625 4.1719 0 2.0547 0.050781 3.5312 0.15625 4.4375 0.10156 0.89844 0.28516 1.5547 0.54688 1.9688 0.33203 0.53125 0.76562 0.94531 1.2969 1.2344 0.53906 0.28125 1.1602 0.42188 1.8594 0.42188 1.707 0 3.0469-0.64844 4.0156-1.9531 0.96875-1.3125 1.4531-3.1289 1.4531-5.4531v-12.609h8.1719v25.531h-8.1719v-3.6875c-1.2305 1.4922-2.5312 2.5898-3.9062 3.2969-1.375 0.69531-2.8906 1.0469-4.5469 1.0469-2.9492 0-5.1953-0.89844-6.7344-2.7031-1.543-1.8125-2.3125-4.4414-2.3125-7.8906z"/>
  </symbol>
  <symbol id="m" overflow="visible">
   <path d="m20.719-35.453v5.3438h-4.5156c-1.1562 0-1.9648 0.21484-2.4219 0.64062-0.44922 0.41797-0.67188 1.1406-0.67188 2.1719v1.7656h6.9688v5.8438h-6.9688v19.688h-8.1719v-19.688h-4.0469v-5.8438h4.0469v-1.7656c0-2.7812 0.77344-4.832 2.3281-6.1562 1.5508-1.332 3.9531-2 7.2031-2z"/>
  </symbol>
  <symbol id="d" overflow="visible">
   <path d="m3.9219-25.531h8.1562v25.531h-8.1562zm0-9.9219h8.1562v6.6406h-8.1562z"/>
  </symbol>
  <symbol id="l" overflow="visible">
   <path d="m3.9219-35.453h8.1562v19.297l9.3906-9.375h9.4844l-12.469 11.719 13.438 13.812h-9.8906l-9.9531-10.641v10.641h-8.1562z"/>
  </symbol>
  <symbol id="k" overflow="visible">
   <path d="m16.062-20.312c-1.8047 0-3.1836 0.65234-4.1406 1.9531-0.94922 1.3047-1.4219 3.1797-1.4219 5.625 0 2.4492 0.47266 4.3242 1.4219 5.625 0.95703 1.293 2.3359 1.9375 4.1406 1.9375 1.7812 0 3.1406-0.64453 4.0781-1.9375 0.94531-1.3008 1.4219-3.1758 1.4219-5.625 0-2.4453-0.47656-4.3203-1.4219-5.625-0.9375-1.3008-2.2969-1.9531-4.0781-1.9531zm0-5.8281c4.3945 0 7.8281 1.1875 10.297 3.5625 2.4688 2.3672 3.7031 5.6484 3.7031 9.8438 0 4.1875-1.2344 7.4688-3.7031 9.8438-2.4688 2.3672-5.9023 3.5469-10.297 3.5469-4.4062 0-7.8555-1.1797-10.344-3.5469-2.4805-2.375-3.7188-5.6562-3.7188-9.8438 0-4.1953 1.2383-7.4766 3.7188-9.8438 2.4883-2.375 5.9375-3.5625 10.344-3.5625z"/>
  </symbol>
  <symbol id="j" overflow="visible">
   <path d="m27.578-21.281c1.0312-1.582 2.2539-2.7852 3.6719-3.6094 1.4258-0.83203 2.9883-1.25 4.6875-1.25 2.9375 0 5.1719 0.90625 6.7031 2.7188 1.5312 1.8047 2.2969 4.4297 2.2969 7.875v15.547h-8.2031v-13.312c0.019531-0.19531 0.03125-0.39844 0.03125-0.60938 0.007813-0.21875 0.015625-0.51953 0.015625-0.90625 0-1.8125-0.26562-3.125-0.79688-3.9375s-1.3906-1.2188-2.5781-1.2188c-1.5547 0-2.75 0.64062-3.5938 1.9219-0.84375 1.2734-1.2773 3.1172-1.2969 5.5312v12.531h-8.2031v-13.312c0-2.8203-0.24609-4.6406-0.73438-5.4531-0.49219-0.8125-1.3555-1.2188-2.5938-1.2188-1.5742 0-2.7891 0.64062-3.6406 1.9219-0.84375 1.2812-1.2656 3.1172-1.2656 5.5v12.562h-8.2031v-25.531h8.2031v3.75c1-1.4453 2.1484-2.5352 3.4531-3.2656 1.3008-0.72656 2.7344-1.0938 4.2969-1.0938 1.7578 0 3.3164 0.42969 4.6719 1.2812 1.3516 0.84375 2.3789 2.0391 3.0781 3.5781z"/>
  </symbol>
 </defs>
 <g>
  <path d="m565.74 463.61v-416.08c0-17.34-14.113-31.453-31.453-31.453h-416.08c-17.34 0-31.453 14.113-31.453 31.453v416.08c0 17.34 14.113 31.453 31.453 31.453h416.08c17.352 0 31.453-14.109 31.453-31.453zm-458.01 0v-416.08c0-5.7969 4.7031-10.492 10.492-10.492h416.08c5.7773 0 10.492 4.6953 10.492 10.492v416.08c0 5.7695-4.7031 10.48-10.492 10.48l-416.09 0.003906c-5.7773 0-10.48-4.7148-10.48-10.484z"/>
  <path d="m386.53 448.21h-237.2c-8.6719 0-15.727-7.0742-15.727-15.734v-353.82c0-8.6875 7.0469-15.734 15.727-15.734h28.176c2.9023 0 5.2461-2.3516 5.2461-5.2461 0-2.9102-2.3438-5.2461-5.2461-5.2461h-28.176c-14.449 0-26.207 11.75-26.207 26.219v353.83c0 14.457 11.762 26.219 26.207 26.219h237.21c2.9023 0 5.2461-2.3633 5.2461-5.2461-0.007812-2.9062-2.3516-5.2383-5.2539-5.2383z"/>
  <path d="m438.95 448.21h-13.113c-2.8945 0-5.2461 2.332-5.2461 5.2461 0 2.8828 2.3438 5.2461 5.2461 5.2461h13.113c2.9023 0 5.2461-2.3633 5.2461-5.2461 0-2.9141-2.3438-5.2461-5.2461-5.2461z"/>
  <path d="m503.17 52.445h-292.24c-2.9023 0-5.2461 2.332-5.2461 5.2461 0 2.8945 2.3438 5.2461 5.2461 5.2461h292.25c8.6719 0 15.727 7.0469 15.727 15.734v353.83c0 8.6602-7.0547 15.734-15.727 15.734h-34.504c-2.9023 0-5.2461 2.332-5.2461 5.2461 0 2.8828 2.3438 5.2461 5.2461 5.2461h34.504c14.449 0 26.207-11.762 26.207-26.219v-353.85c0-14.465-11.762-26.215-26.211-26.215z"/>
  <path d="m478.92 255.57c0-14.477-11.73-26.219-26.207-26.219h-100.26v-100.25c0-14.477-11.73-26.219-26.207-26.219-14.477 0-26.207 11.742-26.207 26.219v100.25l-100.26-0.003906c-14.477 0-26.207 11.742-26.207 26.219 0 14.477 11.73 26.207 26.207 26.207h100.26v100.26c0 14.477 11.73 26.207 26.207 26.207 14.477 0 26.207-11.73 26.207-26.207v-100.27h100.26c14.477 0 26.211-11.723 26.211-26.199z"/>
  <path d="m581.79 64.934h-7.8594v20.973h7.8594c5.7773 0 10.492 4.7148 10.492 10.48v416.08c0 5.7969-4.7031 10.492-10.492 10.492h-416.08c-5.7773 0-10.492-4.6953-10.492-10.492v-7.2422h-20.961v7.2422c0 17.34 14.113 31.453 31.453 31.453h416.08c17.34 0 31.453-14.113 31.453-31.453v-416.08c0-17.344-14.113-31.453-31.453-31.453z"/>
  <use x="70" y="700" xlink:href="#o"/>
  <use x="104.25" y="700" xlink:href="#a"/>
  <use x="127.261719" y="700" xlink:href="#c"/>
  <use x="158.914062" y="700" xlink:href="#i"/>
  <use x="190.402344" y="700" xlink:href="#b"/>
  <use x="212.710937" y="700" xlink:href="#c"/>
  <use x="244.363281" y="700" xlink:href="#h"/>
  <use x="294.015625" y="700" xlink:href="#g"/>
  <use x="327.417969" y="700" xlink:href="#f"/>
  <use x="374.085938" y="700" xlink:href="#e"/>
  <use x="407.308594" y="700" xlink:href="#n"/>
  <use x="440.53125" y="700" xlink:href="#a"/>
  <use x="479.792969" y="700" xlink:href="#m"/>
  <use x="500.09375" y="700" xlink:href="#d"/>
  <use x="516.089844" y="700" xlink:href="#b"/>
  <use x="538.398438" y="700" xlink:href="#a"/>
  <use x="561.414062" y="700" xlink:href="#d"/>
  <use x="593.65625" y="700" xlink:href="#l"/>
  <use x="624.691406" y="700" xlink:href="#k"/>
  <use x="656.75" y="700" xlink:href="#j"/>
 </g>
</svg>
